inDegrees=no
num_controls=7
num_derivatives=13
num_iterations=100
num_multipliers=7
num_parameters=0
num_slacks=7
num_states=26
objective=0.445839
objective_accelerations=0.056516
objective_balance=0.003372
objective_effort=0.022597
objective_height=0.357789
objective_ligament=0.005566
solver_duration=1648.948983
status=Solve_Succeeded
success=true
DataType=double
version=3
OpenSimVersion=4.5
endheader
time	/jointset/ground_pelvis/pelvis_tilt/value	/jointset/ground_pelvis/pelvis_tx/value	/jointset/ground_pelvis/pelvis_ty/value	/jointset/hip_l/hip_flexion_l/value	/jointset/hip_l/hip_adduction_l/value	/jointset/hip_l/hip_rotation_l/value	/jointset/back/lumbar_extension/value	/jointset/patellofemoral_l/patellar_flexion_l/value	/jointset/knee_l/knee_flexion_l/value	/jointset/knee_l/knee_adduction_l/value	/jointset/knee_l/knee_rotation_l/value	/jointset/ankle_l/ankle_angle_l/value	/jointset/subtalar_l/subtalar_angle_l/value	/jointset/ground_pelvis/pelvis_tilt/speed	/jointset/ground_pelvis/pelvis_tx/speed	/jointset/ground_pelvis/pelvis_ty/speed	/jointset/hip_l/hip_flexion_l/speed	/jointset/hip_l/hip_adduction_l/speed	/jointset/hip_l/hip_rotation_l/speed	/jointset/back/lumbar_extension/speed	/jointset/patellofemoral_l/patellar_flexion_l/speed	/jointset/knee_l/knee_flexion_l/speed	/jointset/knee_l/knee_adduction_l/speed	/jointset/knee_l/knee_rotation_l/speed	/jointset/ankle_l/ankle_angle_l/speed	/jointset/subtalar_l/subtalar_angle_l/speed	/forceset/tau_hip_flexion_l	/forceset/tau_hip_adduction_l	/forceset/tau_hip_rotation_l	/forceset/tau_knee_flexion_l	/forceset/tau_ankle_angle_l	/forceset/tau_subtalar_angle_l	/forceset/tau_lumbar_extension	lambda_cid13_p0	lambda_cid13_p1	lambda_cid13_p2	lambda_cid13_p3	lambda_cid13_p4	lambda_cid13_p5	lambda_cid14_p0	/jointset/ground_pelvis/pelvis_tilt/accel	/jointset/ground_pelvis/pelvis_tx/accel	/jointset/ground_pelvis/pelvis_ty/accel	/jointset/hip_l/hip_flexion_l/accel	/jointset/hip_l/hip_adduction_l/accel	/jointset/hip_l/hip_rotation_l/accel	/jointset/back/lumbar_extension/accel	/jointset/patellofemoral_l/patellar_flexion_l/accel	/jointset/knee_l/knee_flexion_l/accel	/jointset/knee_l/knee_adduction_l/accel	/jointset/knee_l/knee_rotation_l/accel	/jointset/ankle_l/ankle_angle_l/accel	/jointset/subtalar_l/subtalar_angle_l/accel	gamma_cid13_p0	gamma_cid13_p1	gamma_cid13_p2	gamma_cid13_p3	gamma_cid13_p4	gamma_cid13_p5	gamma_cid14_p0
1	-0.5372639826715042	-0.07630923322220994	0.5793098496924991	1.808065235583592	-0.4696796916200413	0.01515794798408394	-0.2617550004411546	1.379289873478608	1.379289873478602	-0.09119637837036237	-0.1745213613339275	0.2289745991251627	-0.007814839434374101	-0.01811320385725185	0.009574739299483472	0.001001653637996715	0.003854541393515473	-0.002406052684713812	0.004820867941798574	0.000180624590808819	0.00429002272797933	0.004290022727978525	-0.005257196888579165	-0.000230584588648384	0.01871681072845365	0.007878463394851296	-0.3242373352624225	0.01943213084964591	-0.0001231033024505873	-0.3092055866129264	0.04106988742198139	0.02683678368220922	0.2786850241493775	-26.66197372302443	-7.590931427621957	1.564237722902136	5.435645336911602	-641.0373555644425	-44.75839791879275	-1.554232637221383	1.463736529648967	0.2725123814339835	1.94089611893059	-6.724973754984976	-0.07864238788439867	-2.348071833339351	-0.02020958999363509	-5.255462983090061	-5.255462983089986	-0.5796899214674458	-0.02602071104306867	-0.6705857909215165	-0.461185821989241	4.693836237116874e-09	1.761942369184791e-08	-1.42876513504721e-08	3.599313092124764e-09	-1.048132618581534e-09	1.726808593519492e-08	3.337396255976071e-09
1.01	-0.5373728535465687	-0.07619991663670922	0.5794167712719045	1.807768818250786	-0.4697066552183829	0.01508743663101165	-0.2617531953147278	1.379070121268571	1.379070121268568	-0.09127500276762929	-0.174523697722591	0.2291284105169305	-0.00775766197373662	-0.003659996825638743	0.01229068006427544	0.02037957287636095	-0.06313176735451048	-0.002980142155742667	-0.01891700725520282	0.0001808751725388248	-0.04824028898986203	-0.04824028898985624	-0.01046607571806456	-0.0002288202457698494	0.01203988181240741	0.003561850448384166	-0.3241764029091266	0.01954035741552098	-0.0001412262906895406	-0.3090429191531121	0.0409063782515652	0.02685552663570439	0.278639852696324	-26.70313404254523	-7.595303380146367	1.568862618932899	5.382117417949737	-640.9179791873812	-44.76335495663189	-1.559123349445867	1.436257919882416	0.2714512852686887	1.935774090652215	-6.684524606001891	-0.0458151784180908	-2.385731048385404	0.01021355376819497	-5.251787109064656	-5.251787109063693	-0.4912487065913131	0.01446419232841259	-0.6670836409626298	-0.4161808945547862	-3.442710813870822e-09	9.777962798252268e-09	2.997281428959061e-08	5.093405038851083e-09	-1.154714228203352e-08	6.720457339424734e-08	-8.853123645756332e-09
1.02	-0.5373371633253241	-0.07606337737130719	0.5797173788965659	1.806802724796241	-0.4697391643017755	0.01477972938886093	-0.2617513734481798	1.378325071572769	1.378325071572772	-0.09140566832177716	-0.1745257786307485	0.2292152851797344	-0.007743507015279544	0.0107990154045708	0.01501927527974813	0.039738862689222	-0.1300806829541562	-0.003515149695010371	-0.04261830987240078	0.0001839726147443186	-0.1007694744250432	-0.1007694744250309	-0.01566542826364027	-0.0001794884878925648	0.005329464935702193	-0.000726037041260446	-0.3241154705558391	0.01964858398138495	-0.0001593492789929668	-0.3088802516932991	0.04074286908114667	0.02687426958918494	0.2785946812432641	-26.75019610028047	-7.598777710610832	1.573499458060354	5.348933892575915	-640.8833717081907	-44.74642255566294	-1.574969853027282	1.46489756936824	0.2750432715701349	1.937170233829956	-6.717495125308929	-0.0708260015321759	-2.340757317378672	-0.01964021789859518	-5.25523772655802	-5.255237726557966	-0.5777846646855145	-0.01650722804332918	-0.6772833830532982	-0.4554407306247377	-1.047249530681992e-08	4.519931809058019e-09	7.511573426347276e-08	7.233538253465766e-09	-2.151514352544121e-08	1.153230916767404e-07	-2.011091075482906e-08
1.03	-0.5371568238357299	-0.07589946858583302	0.5802114096553872	1.805167502905257	-0.4697766537369872	0.01423539896579597	-0.2617495191012613	1.377054814953894	1.377054814953897	-0.09158821017384415	-0.1745268966072555	0.2292348233489057	-0.007771898189934192	0.02527232741006143	0.01776653562243233	0.05905656394353089	-0.1969395957177198	-0.00395803715896698	-0.06622066230685912	0.0001866427345557717	-0.1532739904712107	-0.1532739904712152	-0.02083341376467066	-1.164283310541566e-05	-0.001433731025157006	-0.00492746637562923	-0.3237699590313352	0.01984012939489057	-0.0002120097444113236	-0.3085491925039265	0.04060813641544946	0.02695372902192638	0.2783496982145494	-26.76771143471566	-7.64138871434367	1.593050009857992	5.264961604439176	-640.5432189781662	-44.7865369459364	-1.601971396936356	1.43906166089955	0.2751773758184933	1.927454945588566	-6.666478148680397	-0.02732707156089537	-2.365926903476413	0.01018252158148097	-5.246873371824639	-5.246873371827185	-0.4848867498468828	0.0383299000140325	-0.6776216019793434	-0.398798454329789	-1.749098630427881e-08	-7.117376504994665e-10	1.202676588734143e-07	9.38026372591605e-09	-3.147772631558315e-08	1.634230592533501e-07	-3.135918018234403e-08
